<svg xmlns="http://www.w3.org/2000/svg" viewBox="0 0 1408.000000 988.000000" role="img" aria-label="Parlamalament de l'Artista">
<g transform="translate(0.000000,988.000000) scale(0.100000,-0.100000)"
fill="currentColor" stroke="none">
<path d="M3470 9870 c0 -6 -16 -33 -35 -60 -19 -27 -35 -52 -35 -54 0 -3 -13
-24 -29 -48 -25 -39 -85 -133 -145 -228 -24 -38 -44 -69 -128 -200 -90 -141
-94 -148 -82 -168 6 -9 21 -22 32 -28 12 -6 30 -18 40 -27 10 -10 23 -17 28
-17 5 0 35 -18 67 -40 31 -22 61 -40 66 -40 4 0 16 -9 26 -20 10 -11 22 -20
27 -20 4 0 48 -26 96 -57 48 -32 94 -61 102 -66 8 -4 35 -21 60 -37 25 -16 68
-43 95 -60 28 -17 70 -44 95 -60 25 -16 54 -34 65 -39 12 -5 27 -16 34 -25 7
-9 17 -16 22 -16 5 0 35 -18 66 -40 32 -22 63 -40 69 -40 6 0 17 -7 24 -15 7
-8 38 -29 69 -47 31 -17 58 -34 61 -38 3 -3 28 -19 55 -34 28 -16 59 -36 70
-46 25 -21 79 -40 91 -31 8 6 31 39 88 129 13 20 49 77 80 125 31 48 56 91 56
96 0 4 9 16 20 26 11 10 20 23 20 29 0 6 18 37 40 69 22 31 40 61 40 66 0 4 9
16 20 26 11 10 20 22 20 27 0 5 18 36 40 69 46 69 50 93 18 110 -13 7 -60 36
-105 65 -46 30 -87 54 -91 54 -5 0 -17 9 -27 20 -10 11 -22 20 -26 20 -5 0
-35 18 -66 40 -32 22 -63 40 -69 40 -6 0 -19 9 -29 20 -10 11 -22 20 -27 20
-8 0 -88 49 -98 61 -3 3 -30 20 -61 37 -31 18 -62 39 -69 47 -7 8 -17 15 -23
15 -6 0 -27 11 -46 24 -39 26 -114 75 -140 91 -9 5 -54 34 -101 64 -122 77
-147 93 -220 140 -36 22 -70 41 -77 41 -6 0 -15 9 -18 20 -7 21 -55 29 -55 10z"/>
<path d="M10500 9871 c0 -10 -85 -71 -98 -71 -4 0 -33 -18 -65 -40 -31 -22
-61 -40 -66 -40 -4 0 -16 -9 -26 -20 -10 -11 -22 -20 -27 -20 -5 0 -21 -8 -36
-19 -62 -42 -159 -104 -222 -141 -61 -36 -66 -39 -161 -102 -48 -32 -91 -58
-96 -58 -5 0 -18 -9 -28 -20 -10 -11 -22 -20 -26 -20 -5 0 -35 -18 -66 -40
-32 -22 -63 -40 -69 -40 -6 0 -17 -7 -24 -15 -7 -8 -38 -29 -69 -47 -31 -17
-58 -35 -61 -38 -3 -3 -30 -21 -61 -38 -31 -18 -62 -39 -69 -47 -7 -8 -18 -15
-25 -15 -7 0 -18 -6 -24 -14 -14 -17 -1 -47 60 -138 22 -31 39 -61 39 -66 0
-5 7 -16 16 -23 9 -7 20 -22 25 -34 5 -11 23 -40 39 -65 16 -25 34 -55 39 -67
5 -11 15 -24 21 -28 6 -4 15 -17 20 -28 5 -12 39 -67 75 -122 36 -55 74 -116
84 -135 10 -19 28 -43 39 -53 20 -18 21 -18 71 17 28 20 55 36 59 36 5 0 17 9
27 20 10 11 22 20 27 20 5 0 50 27 100 60 49 33 92 60 94 60 3 0 17 8 32 18
15 11 45 30 67 44 22 14 78 50 125 79 47 30 92 59 101 64 26 16 101 65 140 91
19 13 40 24 46 24 6 0 16 7 23 15 7 8 38 29 69 47 31 17 58 34 61 37 10 12 90
61 98 61 5 0 17 9 27 20 10 11 22 20 28 20 5 0 45 23 88 52 61 40 79 57 79 75
0 13 -25 63 -56 111 -31 48 -66 103 -78 122 -13 19 -34 53 -48 75 -14 22 -47
74 -73 115 -27 41 -61 94 -76 118 -16 24 -29 45 -29 48 0 2 -16 27 -36 55 -20
29 -40 64 -46 80 -7 21 -17 29 -34 29 -13 0 -24 -4 -24 -9z"/>
<path d="M2980 8460 c-30 -10 -62 -19 -70 -19 -9 -1 -42 -15 -75 -33 -33 -17
-73 -38 -90 -46 -16 -9 -71 -56 -121 -106 -76 -77 -97 -106 -137 -186 -71
-147 -82 -193 -82 -355 0 -145 11 -206 56 -300 11 -22 19 -43 19 -48 0 -14 94
-143 139 -190 38 -40 108 -95 165 -129 27 -17 87 -41 156 -65 68 -23 90 -26
225 -26 134 0 158 3 225 26 253 85 421 252 506 503 24 71 27 93 27 229 1 139
-1 156 -27 230 -24 70 -38 101 -65 151 -47 87 -176 225 -249 264 -20 11 -44
24 -52 29 -57 32 -91 45 -168 67 -113 31 -296 33 -382 4z"/>
<path d="M10690 8409 c-46 -10 -100 -24 -120 -33 -19 -8 -42 -17 -50 -21 -18
-7 -71 -39 -126 -76 -51 -34 -165 -155 -188 -199 -9 -19 -25 -48 -33 -65 -38
-70 -46 -90 -61 -143 -8 -32 -17 -113 -19 -182 -5 -135 11 -241 48 -312 10
-20 19 -42 19 -48 0 -22 96 -157 150 -210 47 -48 141 -120 156 -120 3 0 16 -8
31 -17 14 -9 49 -25 77 -35 197 -72 458 -61 611 24 11 7 34 18 50 26 78 39
204 159 260 247 30 48 65 115 65 126 0 6 8 29 19 52 10 23 24 87 31 142 10 84
9 119 -4 211 -8 61 -21 124 -29 140 -8 16 -27 56 -43 89 -55 121 -185 260
-299 321 -48 26 -62 33 -100 49 -60 27 -211 54 -290 54 -38 -1 -108 -9 -155
-20z"/>
<path d="M6705 7024 c-27 -2 -147 -11 -265 -20 -118 -8 -233 -19 -255 -24 -22
-5 -71 -11 -110 -15 -65 -6 -227 -32 -355 -57 -147 -28 -239 -47 -275 -56 -22
-6 -60 -15 -85 -21 -25 -5 -79 -19 -120 -30 -41 -11 -95 -25 -120 -32 -25 -6
-69 -20 -98 -30 -30 -11 -61 -19 -70 -19 -10 -1 -35 -9 -57 -20 -22 -11 -50
-19 -63 -20 -12 0 -40 -9 -62 -20 -22 -11 -47 -20 -57 -20 -10 -1 -36 -9 -58
-20 -22 -11 -46 -19 -54 -20 -8 0 -32 -9 -55 -19 -23 -11 -68 -29 -101 -41
-33 -12 -78 -30 -100 -40 -22 -9 -60 -26 -85 -37 -25 -10 -65 -29 -90 -41 -25
-12 -52 -22 -60 -22 -8 0 -26 -9 -40 -20 -14 -11 -32 -20 -40 -20 -8 0 -26 -9
-40 -20 -14 -11 -31 -20 -37 -20 -14 0 -122 -56 -137 -71 -6 -5 -17 -9 -27 -9
-9 0 -28 -9 -42 -20 -14 -11 -32 -20 -40 -20 -7 0 -22 -9 -32 -20 -10 -11 -26
-20 -36 -20 -10 0 -21 -5 -25 -11 -3 -6 -21 -18 -38 -26 -17 -8 -53 -27 -81
-44 -27 -16 -59 -33 -70 -38 -12 -5 -27 -16 -34 -25 -7 -9 -18 -16 -24 -16 -6
0 -27 -11 -46 -24 -20 -13 -56 -37 -80 -52 -134 -88 -282 -189 -373 -257 -101
-75 -248 -188 -260 -201 -7 -6 -56 -47 -108 -90 -52 -43 -115 -97 -140 -120
-413 -381 -575 -555 -934 -1007 -7 -8 -34 -46 -61 -85 -26 -38 -55 -78 -65
-89 -23 -27 -203 -297 -265 -397 -11 -19 -85 -144 -132 -227 -18 -31 -51 -92
-74 -136 -22 -44 -47 -87 -55 -96 -8 -8 -14 -22 -14 -30 0 -8 -9 -25 -20 -39
-11 -14 -20 -29 -20 -34 0 -5 -18 -48 -41 -95 -81 -172 -84 -179 -138 -311
-13 -30 -31 -73 -41 -95 -10 -22 -28 -67 -40 -100 -11 -33 -30 -83 -41 -110
-10 -28 -19 -55 -19 -60 -1 -6 -9 -28 -20 -50 -11 -22 -20 -49 -20 -60 0 -11
-7 -33 -15 -49 -8 -16 -21 -54 -29 -85 -8 -31 -18 -69 -24 -86 -27 -80 -46
-145 -58 -195 -7 -30 -22 -93 -34 -140 -12 -47 -27 -114 -34 -150 -7 -36 -20
-96 -29 -135 -36 -158 -84 -474 -92 -603 -7 -120 -25 -254 -36 -274 -5 -10 -9
-130 -9 -268 l0 -250 1763 0 1764 0 6 132 c8 158 34 411 47 453 5 17 12 53 15
80 10 77 59 267 101 395 9 25 19 59 24 75 19 65 52 150 66 169 8 11 14 27 14
36 0 8 9 33 19 55 120 245 168 338 201 385 9 14 20 32 24 40 8 18 44 74 111
172 94 138 250 323 390 464 155 156 184 182 306 279 113 90 106 85 173 130
137 94 336 215 353 215 5 0 19 9 33 20 14 11 32 20 40 20 8 0 26 9 40 20 14
11 32 20 41 20 9 0 28 9 42 20 14 11 34 20 44 20 10 0 24 5 29 10 10 10 67 34
159 66 22 8 49 19 60 24 11 6 43 17 70 24 28 8 82 24 120 36 39 12 93 26 120
32 28 6 71 17 98 24 26 8 80 19 120 24 39 5 88 14 107 20 47 13 400 40 530 40
122 0 455 -26 509 -39 20 -5 59 -12 86 -15 67 -8 226 -44 301 -67 33 -10 69
-19 80 -19 10 -1 37 -9 59 -20 22 -11 49 -20 60 -20 11 0 38 -9 60 -20 22 -11
47 -19 55 -20 8 0 32 -9 53 -20 20 -11 43 -20 49 -20 7 0 31 -9 53 -20 22 -10
83 -40 135 -64 52 -25 106 -52 120 -60 14 -8 32 -17 40 -21 8 -3 31 -16 52
-28 20 -12 65 -39 100 -60 122 -74 135 -82 202 -132 333 -249 577 -489 791
-777 44 -59 96 -133 115 -163 19 -31 42 -67 50 -80 26 -40 124 -214 147 -261
6 -10 16 -30 23 -44 22 -43 27 -52 69 -150 23 -52 41 -99 41 -104 0 -5 8 -27
19 -50 28 -63 63 -169 93 -281 6 -22 19 -69 29 -104 11 -35 19 -75 19 -89 0
-14 9 -59 19 -101 29 -111 52 -314 59 -493 l5 -158 1760 0 1759 0 -5 308 c-5
295 -28 581 -57 712 -6 25 -14 79 -19 120 -5 41 -16 111 -25 155 -31 155 -58
280 -68 320 -5 22 -18 74 -28 115 -30 122 -41 162 -61 218 -11 30 -19 61 -19
70 0 9 -8 39 -19 67 -28 75 -42 115 -57 165 -7 25 -27 83 -44 130 -18 47 -36
101 -42 120 -6 19 -17 44 -24 55 -8 11 -14 26 -14 34 0 8 -8 33 -18 55 -11 23
-29 66 -42 96 -13 30 -41 91 -62 136 -21 44 -38 87 -38 95 0 8 -9 25 -20 39
-11 14 -20 32 -20 40 0 8 -9 26 -20 40 -11 14 -20 32 -20 40 0 8 -9 26 -20 40
-11 14 -20 33 -20 42 0 9 -4 19 -9 22 -5 3 -18 25 -30 48 -12 24 -25 50 -30
58 -5 8 -12 22 -16 30 -3 8 -16 31 -28 52 -12 20 -41 69 -65 110 -42 73 -48
82 -88 148 -21 34 -223 341 -254 385 -30 43 -94 130 -100 135 -3 3 -18 23 -34
45 -122 167 -378 464 -576 669 -278 287 -770 704 -1008 854 -24 15 -69 46 -99
70 -31 23 -60 42 -66 42 -6 0 -19 8 -29 17 -20 18 -87 61 -193 123 -38 22 -83
49 -100 59 -50 30 -162 94 -194 110 -11 6 -31 16 -43 23 -13 6 -39 20 -58 30
-19 10 -42 22 -50 27 -8 5 -26 14 -40 20 -14 6 -32 15 -40 19 -8 5 -37 19 -65
32 -72 33 -78 36 -100 47 -11 5 -40 19 -65 30 -25 11 -66 30 -91 42 -25 11
-50 21 -55 21 -5 0 -27 8 -49 19 -88 42 -136 61 -153 61 -9 0 -30 9 -47 20
-16 11 -37 20 -45 20 -8 0 -38 9 -67 20 -106 40 -194 69 -363 119 -41 13 -97
30 -125 38 -27 9 -77 22 -110 30 -33 8 -96 23 -140 33 -170 40 -333 73 -445
91 -41 6 -88 15 -104 20 -16 5 -47 9 -70 9 -23 0 -84 7 -136 16 -173 28 -461
45 -805 48 -187 2 -362 2 -390 0z"/>
</g>
</svg>
